<mxfile host="app.diagrams.net" agent="Mozilla/5.0 (Windows NT 10.0; Win64; x64) AppleWebKit/537.36 (KHTML, like Gecko) Chrome/136.0.0.0 Safari/537.36" version="27.0.9">
  <diagram name="Página-1" id="W4rULqUDbjKW4zX-dyBw">
    <mxGraphModel grid="1" page="1" gridSize="10" guides="1" tooltips="1" connect="1" arrows="1" fold="1" pageScale="1" pageWidth="1654" pageHeight="2336" math="0" shadow="0">
      <root>
        <mxCell id="0" />
        <mxCell id="1" parent="0" />
        <mxCell id="ywd59SVErPVPnXJvX7KZ-2" value="" style="ellipse;fillColor=strokeColor;html=1;" vertex="1" parent="1">
          <mxGeometry x="-1565" y="110" width="30" height="30" as="geometry" />
        </mxCell>
        <mxCell id="ywd59SVErPVPnXJvX7KZ-16" value="" style="ellipse;html=1;shape=endState;fillColor=strokeColor;" vertex="1" parent="1">
          <mxGeometry x="-1205" y="1000" width="30" height="30" as="geometry" />
        </mxCell>
        <mxCell id="Zg2RwI3bCPtanBzoQ3vK-1" value="Carga iniciada" style="rounded=1;whiteSpace=wrap;html=1;" vertex="1" parent="1">
          <mxGeometry x="-1420" y="102.5" width="100" height="45" as="geometry" />
        </mxCell>
        <mxCell id="Zg2RwI3bCPtanBzoQ3vK-104" value="Automática" style="text;html=1;align=center;verticalAlign=middle;resizable=0;points=[];autosize=1;strokeColor=none;fillColor=none;fontFamily=Helvetica;fontSize=11;fontColor=default;labelBackgroundColor=default;" vertex="1" parent="1">
          <mxGeometry x="-1520" y="250" width="80" height="30" as="geometry" />
        </mxCell>
        <mxCell id="Zg2RwI3bCPtanBzoQ3vK-133" style="edgeStyle=orthogonalEdgeStyle;shape=connector;rounded=0;orthogonalLoop=1;jettySize=auto;html=1;entryX=1;entryY=0.5;entryDx=0;entryDy=0;strokeColor=default;align=center;verticalAlign=middle;fontFamily=Helvetica;fontSize=11;fontColor=default;labelBackgroundColor=default;endArrow=open;endFill=0;endSize=8;" edge="1" parent="1" target="Zg2RwI3bCPtanBzoQ3vK-132">
          <mxGeometry relative="1" as="geometry">
            <mxPoint x="-1417.5" y="490" as="sourcePoint" />
          </mxGeometry>
        </mxCell>
        <mxCell id="Zg2RwI3bCPtanBzoQ3vK-135" style="edgeStyle=orthogonalEdgeStyle;shape=connector;rounded=0;orthogonalLoop=1;jettySize=auto;html=1;strokeColor=default;align=center;verticalAlign=middle;fontFamily=Helvetica;fontSize=11;fontColor=default;labelBackgroundColor=default;endArrow=open;endFill=0;endSize=8;" edge="1" parent="1" target="ywd59SVErPVPnXJvX7KZ-16">
          <mxGeometry relative="1" as="geometry">
            <mxPoint x="-1190" y="920" as="sourcePoint" />
          </mxGeometry>
        </mxCell>
        <mxCell id="Zg2RwI3bCPtanBzoQ3vK-140" style="edgeStyle=orthogonalEdgeStyle;shape=connector;rounded=0;orthogonalLoop=1;jettySize=auto;html=1;strokeColor=default;align=center;verticalAlign=middle;fontFamily=Helvetica;fontSize=11;fontColor=default;labelBackgroundColor=default;endArrow=open;endFill=0;endSize=8;" edge="1" parent="1" source="Zg2RwI3bCPtanBzoQ3vK-132" target="Zg2RwI3bCPtanBzoQ3vK-139">
          <mxGeometry relative="1" as="geometry" />
        </mxCell>
        <mxCell id="Zg2RwI3bCPtanBzoQ3vK-132" value="Creación rechazada" style="rounded=1;whiteSpace=wrap;html=1;" vertex="1" parent="1">
          <mxGeometry x="-1610" y="460" width="120" height="60" as="geometry" />
        </mxCell>
        <mxCell id="Zg2RwI3bCPtanBzoQ3vK-134" value="No" style="text;html=1;align=center;verticalAlign=middle;resizable=0;points=[];autosize=1;strokeColor=none;fillColor=none;fontFamily=Helvetica;fontSize=11;fontColor=default;labelBackgroundColor=default;" vertex="1" parent="1">
          <mxGeometry x="-1450" y="460" width="40" height="30" as="geometry" />
        </mxCell>
        <mxCell id="Zg2RwI3bCPtanBzoQ3vK-139" value="" style="ellipse;html=1;shape=endState;fillColor=strokeColor;" vertex="1" parent="1">
          <mxGeometry x="-1565" y="590" width="30" height="30" as="geometry" />
        </mxCell>
      </root>
    </mxGraphModel>
  </diagram>
</mxfile>
